<svg width="860" height="759" viewBox="0 0 860 759" fill="none" xmlns="http://www.w3.org/2000/svg">
<path d="M431 0.327563C441 6.97615 448.85 12.3863 456.135 17.7199C499.75 50.9379 529.546 99.0295 541.211 156.164C542.761 165.822 544.058 175.509 545.333 185.211C545.674 187.778 546.021 190.344 546.376 192.987C547.216 199.266 548 224.977 547 230.977C573.822 231.107 608.733 231.892 635.554 231.953C648.008 231.982 662.146 231.889 674.603 231.953C686.642 232.013 694.956 231.94 706.995 231.953C711.569 231.962 746.795 231.927 751.369 231.953C757.5 230.977 790 228.477 815.5 206.977C841 185.477 860.5 153.977 859.196 112.272C857.891 70.5672 838.5 46.3198 824.5 32.9762C792.5 2.47656 765.831 -0.134172 724.114 0.00911933C720.999 0.00911933 717.883 0.00911933 714.669 0.00911933C706.182 0.0123036 697.696 0.0250456 689.206 0.0441511C680.313 0.0632565 671.421 0.0632686 662.528 0.0664529C645.712 0.0760056 628.9 0.0982862 612.084 0.126944C592.932 0.155603 573.779 0.174748 554.626 0.187485C515.252 0.216143 470.377 0.263878 431 0.327563Z" fill="#93D5F1"/>
<path d="M303.394 221.227C303.13 281.193 302.927 341.162 302.806 401.129C302.79 408.215 302.778 415.301 302.762 422.39C302.755 423.798 302.752 425.208 302.752 426.664C302.702 449.478 302.609 472.293 302.508 495.109C302.397 518.536 302.333 541.962 302.311 565.386C302.295 578.541 302.26 591.691 302.175 604.843C302.098 617.228 302.076 629.616 302.092 642.002C302.089 646.539 302.067 651.079 302.022 655.617C301.727 687.272 303.927 713.52 336.719 737.896C363.615 755.039 393.287 759.452 428.754 758.937C460.641 757.79 483.402 746.137 504.67 730.533C526.456 713.39 530.98 693.862 530.97 671.685C530.983 669.975 530.996 668.263 531.005 666.501C531.037 660.782 531.047 655.065 531.059 649.347C531.078 645.242 531.094 641.136 531.116 637.029C531.177 623.56 531.208 610.09 531.237 596.62C531.247 591.976 531.259 587.332 531.272 582.688C531.326 560.874 531.364 539.057 531.389 517.243C531.418 492.086 531.494 466.927 531.608 441.773C531.697 422.31 531.739 402.847 531.748 383.385C531.758 371.768 531.783 360.153 531.853 348.536C531.92 337.604 531.932 326.67 531.904 315.74C531.901 311.735 531.92 307.735 531.961 303.733C532.202 277.71 532.193 254.358 504.445 234.417C479.907 219.843 451.22 220.934 420.488 221.031C415.457 221.036 415.457 221.036 410.324 221.043C399.661 221.052 388.995 221.077 378.335 221.102C371.082 221.113 363.834 221.122 356.581 221.129C338.852 221.152 321.123 221.186 303.394 221.227Z" fill="#27AAE2"/>
<path d="M20.8813 35.2095C4.43762 57.5905 -1.49961 83.4349 0.31399 111.698C3.75504 141.692 17.2626 164.775 38.6365 183.835C63.9734 202.489 94.5338 201.286 123.941 201.187C127.853 201.197 131.768 201.206 135.683 201.219C144.065 201.241 152.448 201.248 160.83 201.241C174.101 201.235 187.377 201.273 200.651 201.321C238.378 201.451 276.108 201.517 313.838 201.536C334.713 201.549 355.585 201.6 376.46 201.689C389.635 201.746 402.809 201.752 415.984 201.724C424.2 201.714 432.416 201.752 440.635 201.806C444.423 201.819 448.209 201.819 451.999 201.794C478.605 201.632 501.787 204.508 523.099 223.368C524.769 224.816 526.433 226.26 528.151 227.746C529.919 229.356 529.919 229.356 531.722 231C534.302 170.403 519.055 112.492 481.155 66.854C443.746 23.6349 397.758 2.58097 343.604 0.460331C336.784 0.34922 329.972 0.314279 323.152 0.320628C320.596 0.30793 318.041 0.301572 315.41 0.292048C307.061 0.263477 298.709 0.260297 290.36 0.257123C284.505 0.247599 278.65 0.238067 272.794 0.228543C260.559 0.21267 248.326 0.206331 236.091 0.209506C220.459 0.209506 204.828 0.171433 189.196 0.123814C177.116 0.0920682 165.039 0.0888885 152.961 0.0888885C147.196 0.0857139 141.436 0.072988 135.674 0.0507657C127.607 0.0221943 119.538 0.0317441 111.468 0.0476171C109.122 0.0317441 106.772 0.0190476 104.352 0C70.3985 0.177778 44.6725 8.16509 20.8813 35.2095Z" fill="#176688"/>
</svg>
